<svg width="1727" height="1557" viewBox="0 0 1727 1557" fill="none" xmlns="http://www.w3.org/2000/svg">
<path d="M356.318 14.9708L356.3 14.9745C303.585 26.1078 283.548 32.7654 245.074 52.3397C207.244 71.3908 177.617 93.0448 146.331 124.331L146.326 124.336L146.321 124.341C122.915 147.882 112.579 160.388 95.3267 185.863L95.3224 185.869L95.3182 185.875C80.6568 207.666 75.2185 217.05 62.4659 242.421L62.4615 242.43L62.4571 242.439C47.4958 272.496 38.4557 296.532 27.9842 334.122C25.3886 343.373 22.926 351.992 21.0627 358.447C20.1309 361.675 19.3497 364.359 18.7775 366.308C18.4912 367.283 18.2584 368.07 18.0857 368.647C17.9992 368.936 17.9294 369.168 17.8763 369.341C17.8497 369.428 17.8286 369.496 17.8125 369.548C17.8064 369.567 17.8016 369.582 17.7981 369.593C17.4322 370.651 17.0556 372.573 18.1501 374.564C19.196 376.467 20.9527 377.241 21.9586 377.572C23.918 378.217 26.6359 378.324 29.7159 378.283C36.257 378.197 47.7703 377.308 67.0946 375.648L67.1042 375.647C112.583 371.652 144.85 370.726 168.263 373.173C191.632 375.616 205.564 381.361 214.982 390.182C220.154 395.027 222.512 397.959 223.815 401.266C225.159 404.678 225.6 409.036 225.534 417.287C225.467 423.867 225.33 427.247 224.484 431.403C223.606 435.715 221.95 440.937 218.59 451.085C212.563 469.032 211.28 474.71 211.134 483.921L211.133 483.96V484C211.133 491.423 211.63 496.383 214.122 501.02C219.499 511.185 226.763 518.513 236.458 523.286L236.462 523.288C240.262 525.155 243.174 526.458 246.317 527.099C249.475 527.744 252.558 527.658 256.562 527.391C268.034 526.795 277.746 522.77 285.361 515.31C291.777 509.044 295.616 501.651 296.664 493.001C297.696 484.478 295.973 475.118 291.995 464.859C285.749 448.74 282.76 440.945 281.272 435.769C279.898 430.987 279.865 428.706 279.8 423.273L279.799 423.261C279.733 418.686 279.849 416.21 280.255 414.152C280.646 412.174 281.353 410.337 282.898 407.118C290.143 392.411 305.728 381.622 328.766 376.759L328.769 376.758C346.333 373.04 377.769 372.197 412.283 374.852L412.286 374.852C427.983 376.049 446.375 377.382 452.986 377.788L464.946 378.718L469.459 379.069L470.255 374.613L474.52 350.758C474.52 350.757 474.52 350.756 474.52 350.755C478.525 328.664 480.749 312.831 481.18 300.931C481.612 288.985 480.261 280.542 476.739 273.497L476.73 273.48L476.722 273.464C474.52 269.142 471.415 265.749 467.276 263.493C463.194 261.268 458.443 260.333 453.2 260.333C443.68 260.333 433.782 263.397 416.429 270.871C398.438 278.563 388.705 280.682 375.616 279.941L375.606 279.941L375.596 279.94C368.346 279.559 362.784 278.492 357.954 276.583C353.157 274.688 348.831 271.863 344.178 267.647C327.52 252.196 322.116 225.125 331.388 206.938L331.391 206.932C333.159 203.453 336.443 199.083 340.44 194.879C344.422 190.691 348.818 186.976 352.602 184.67L352.609 184.666C367.175 175.757 383.772 174.237 408.746 180.707L408.759 180.71L408.771 180.713C423.102 184.347 434.454 186.212 443.532 186.032C452.728 185.85 459.98 183.555 465.594 178.532C467.837 176.541 469.759 174.176 470.897 170.589C471.962 167.232 472.229 163.144 471.978 157.878C471.476 147.387 468.774 130.232 463.73 100.497L463.729 100.491C463.378 98.4386 463.035 96.4328 462.701 94.4727C455.685 53.395 452.103 32.4171 449.208 21.7715C447.759 16.4421 446.185 12.3663 443.385 9.98236C440.573 7.58826 437.167 7.5589 435.353 7.54333C435.166 7.54175 434.995 7.54028 434.844 7.53632C431.469 7.39624 417.064 8.09113 403.013 9.01025L356.318 14.9708ZM356.318 14.9708L356.335 14.9673M356.318 14.9708L356.335 14.9673M356.335 14.9673C370.986 11.9829 384.148 10.223 403.012 9.01031L356.335 14.9673Z" stroke="#9E9E9E" stroke-opacity="0.6" stroke-width="10"/>
<path d="M456.445 24.7462L456.457 24.7811C461.235 39.1164 464.52 55.6613 469.048 88.0262L469.049 88.029C471.317 104.178 474.387 125.131 475.857 134.755L475.861 134.781L475.865 134.806C479.112 154.684 478.922 167.701 475.616 176.307C472.543 184.304 466.492 189.158 455.451 191.95C445.96 194.322 436.286 193.891 409.439 188.949L409.433 188.948C392.162 185.79 378.925 184.838 368.363 186.928C357.446 189.089 349.66 194.44 343.312 203.028L343.3 203.045L343.287 203.062C339.687 208.022 337.182 212.063 335.795 216.488C334.389 220.976 334.263 225.433 334.61 230.979L334.611 231.001L334.613 231.023C335.266 240.173 337.87 248.236 342.594 255.036C347.316 261.834 353.969 267.098 362.307 270.941L362.334 270.953L362.36 270.965C365.6 272.413 368.235 273.441 371.473 273.928C374.587 274.396 378.018 274.325 382.811 274.059L382.823 274.058C392.848 273.477 397.723 272.029 413.852 265.578C436.272 256.636 445.064 254.333 454 254.333C465.054 254.333 472.312 257.143 477.349 262.581C482.573 268.221 486.15 277.462 487.97 291.936C490 309.367 487.205 337.352 480.356 364.759C479.645 367.469 479.158 370.048 478.943 372.117C478.838 373.134 478.781 374.184 478.841 375.131C478.871 375.594 478.939 376.211 479.122 376.859C479.259 377.342 479.688 378.713 481.01 379.771C481.587 380.232 482.146 380.467 482.295 380.53L482.303 380.533C482.54 380.632 482.757 380.706 482.91 380.754C483.221 380.853 483.555 380.941 483.859 381.015C484.483 381.167 485.289 381.336 486.215 381.517C488.084 381.883 490.663 382.338 493.749 382.849C499.931 383.874 508.273 385.147 517.303 386.418L517.311 386.419L517.32 386.42C538.296 389.302 556.238 390.927 570.918 391.216C585.5 391.502 597.253 390.483 605.639 387.835L605.652 387.83L605.665 387.826C617.958 383.87 626.958 377.949 632.327 368.638C635.939 362.423 637.938 356.684 637.167 349.964C636.435 343.572 633.249 336.94 628.275 328.74L628.268 328.728L628.26 328.716C624.977 323.372 623.017 319.322 621.841 315.385C620.673 311.478 620.2 307.428 620.2 302C620.2 294.715 621.14 289.023 623.251 283.81C625.37 278.58 628.795 273.517 634.2 267.666C639.98 261.458 646.972 256.72 653.941 253.902C660.959 251.064 667.608 250.305 672.85 251.533C684.548 254.315 696.946 264.322 707.651 281.089M456.445 24.7462L624 331.333C617.2 320.267 615.2 313.467 615.2 302C615.2 286.533 619.2 276.533 630.533 264.267C643.067 250.8 660.933 243.6 674 246.667C687.467 249.867 700.8 261.067 711.867 278.4C725.2 299.333 726.533 308.667 719.6 332.533M456.445 24.7462L456.434 24.7112C455.563 21.966 454.757 19.3799 454.167 17.4391C453.872 16.4719 453.626 15.647 453.451 15.0367C453.364 14.736 453.286 14.4575 453.227 14.2285C453.211 14.1682 453.194 14.0993 453.176 14.0257C453.161 13.9646 453.146 13.9004 453.132 13.8354C453.117 13.7655 453.093 13.654 453.072 13.522L453.07 13.5148C453.057 13.4377 453 13.0943 453 12.6666C453 10.165 454.69 8.82138 455.225 8.45056C455.872 8.00189 456.49 7.789 456.77 7.69952C457.396 7.49921 458.036 7.39865 458.485 7.33923C459.465 7.20963 460.73 7.1308 462.116 7.08035C464.938 6.97766 468.811 6.97513 473.17 7.05072C481.905 7.20221 492.868 7.6727 501.842 8.34738L501.85 8.34799L501.858 8.34863C629.035 18.3286 732.004 76.137 804.216 178.446C828.37 212.531 846.81 246.598 855.293 273.136C855.294 273.139 855.295 273.142 855.296 273.145L859.823 287.126L860.084 287.932L860.065 288.779L859.266 324.36L859.265 324.379L858.599 360.093L858.521 364.271L854.396 364.936L850.267 365.602M456.445 24.7462L850.267 365.602M707.651 281.089C707.652 281.089 707.652 281.09 707.652 281.091L711.864 278.402L707.649 281.086C707.65 281.087 707.651 281.088 707.651 281.089ZM707.651 281.089C714.229 291.417 717.407 298.238 718.384 305.074C719.36 311.907 718.221 319.352 714.804 331.12M714.804 331.12C714.806 331.112 714.809 331.104 714.811 331.097L719.6 332.533M714.804 331.12C714.802 331.126 714.8 331.132 714.798 331.138L719.6 332.533M714.804 331.12C713.568 335.242 712.472 339.558 711.68 343.206C710.93 346.663 710.333 350.046 710.333 352C710.333 358.789 713.539 364.178 719.427 367.807C724.95 371.21 732.726 373.028 742.26 373.783M719.6 332.533C717.2 340.533 715.333 349.333 715.333 352C715.333 361.867 724.133 367.333 742.667 368.8M742.667 368.8L742.244 373.782C742.25 373.783 742.255 373.783 742.26 373.783M742.667 368.8C750.533 369.467 834.667 363.067 849.467 360.667M742.667 368.8L742.272 373.784C742.268 373.784 742.264 373.784 742.26 373.783M742.26 373.783C743.613 373.896 746.109 373.849 749.095 373.737C752.228 373.619 756.257 373.412 760.886 373.139C770.148 372.593 781.895 371.779 793.846 370.869C817.615 369.06 842.598 366.845 850.263 365.603M849.467 360.667L850.263 365.603M849.467 360.667L850.267 365.602M849.467 360.667L853.6 360L854.267 324.267L850.267 365.602M850.263 365.603C850.264 365.603 850.266 365.602 850.267 365.602M850.263 365.603L850.267 365.602" stroke="#9E9E9E" stroke-opacity="0.6" stroke-width="10"/>
<path d="M868.226 288.483L868.222 288.496C866.604 294.833 865.624 299.11 865.087 305.05C864.563 310.846 864.467 318.175 864.467 330.654C864.467 330.659 864.467 330.663 864.467 330.667L864.334 357.976L864.309 363.074L869.406 362.999L906.053 362.466C906.057 362.466 906.061 362.466 906.064 362.466C943.892 362.067 975.86 363.679 992.935 366.912C1011.32 370.42 1024.97 376.401 1033.6 383.837C1042.07 391.131 1045.67 399.756 1044.5 409.397L1044.5 409.432L1044.5 409.467C1044.35 410.863 1043.66 413.892 1042.52 417.882C1041.42 421.749 1040 426.195 1038.51 430.272C1036.1 436.754 1034.59 441.268 1033.7 445.386C1032.78 449.598 1032.54 453.238 1032.47 457.926L1032.47 457.929C1032.4 462.606 1032.48 466.033 1033.16 469.245C1033.85 472.536 1035.1 475.32 1036.88 478.804C1040.76 486.412 1045.93 492.313 1052.45 496.106C1059 499.91 1066.54 501.387 1074.8 500.717L1074.82 500.716C1083.1 500.026 1092.32 496.174 1100.1 491.149C1107.83 486.153 1114.93 479.477 1118.36 472.462L1118.36 472.451L1118.37 472.44C1122.91 463.034 1122.4 452.474 1117.97 438.49L1117.96 438.484C1115.75 431.514 1114.91 426.061 1115.22 421.029C1115.54 416.028 1117.01 411.087 1119.94 405.172C1122.32 400.48 1124.85 397.087 1127.97 394.38C1131.12 391.652 1135.11 389.417 1140.67 387.355L1140.68 387.35L1140.7 387.345C1163.75 378.652 1191.72 378.536 1261.75 387.757L1261.75 387.758C1267.94 388.564 1273.71 389.207 1278.04 389.581C1280.19 389.768 1282.04 389.894 1283.44 389.935C1284.12 389.956 1284.8 389.96 1285.39 389.923C1285.67 389.906 1286.07 389.872 1286.51 389.784C1286.72 389.741 1287.06 389.662 1287.45 389.512C1287.77 389.391 1288.54 389.068 1289.27 388.336L1289.34 388.265L1289.41 388.191C1290.31 387.21 1290.62 386.078 1290.68 385.848L1290.69 385.823C1290.81 385.39 1290.89 384.956 1290.95 384.601C1291.06 383.873 1291.15 382.989 1291.22 382.041C1291.36 380.12 1291.46 377.539 1291.53 374.55C1291.66 368.549 1291.68 360.65 1291.58 352.527C1291.49 344.399 1291.29 336.003 1291.01 329.004C1290.73 322.153 1290.36 316.262 1289.86 313.402L1289.85 313.37L1289.85 313.339C1286.2 294.005 1278.97 279.781 1266.88 274.728C1262.14 272.704 1256.27 272.121 1249.61 272.508C1242.88 272.9 1234.94 274.31 1225.84 276.62L1225.82 276.624L1225.81 276.628C1212.58 280.067 1208.89 280.535 1202.74 279.956C1186.56 278.397 1168.56 265.782 1160.89 250.192L1160.88 250.186C1156.13 240.569 1155.11 228.891 1158.17 217.418L1158.17 217.397L1158.18 217.376C1164.22 193.843 1179.56 178.039 1197.92 174.236C1206.19 172.631 1211.42 173.206 1232.56 179.456C1246.75 183.765 1256.95 186.103 1264.55 185.779C1268.5 185.61 1271.99 184.72 1275.05 182.851C1278.09 180.99 1280.33 178.385 1282.14 175.389C1283.79 172.671 1285.01 169.063 1286.01 164.53C1287.02 159.94 1287.87 154.076 1288.62 146.635C1290.13 131.756 1291.26 110.112 1292.33 78.8445M868.226 288.483L1276.97 7.26755M868.226 288.483L868.229 288.47C877.027 254.777 896.561 216.629 921.665 181.067C946.786 145.48 977.7 112.177 1009.53 88.2727C1074.22 39.5508 1157.23 12.5147 1255.73 7.94037C1260.26 7.66748 1269.79 7.40067 1276.97 7.2677L1276.97 7.26755M868.226 288.483L1276.97 7.26755M1292.33 78.8445C1292.33 78.8421 1292.33 78.8396 1292.33 78.8372L1287.33 78.6667L1292.33 78.8517C1292.33 78.8493 1292.33 78.8469 1292.33 78.8445ZM1292.33 78.8445C1293.13 57.2444 1294.06 33.4481 1294.46 25.8793L1294.46 25.8936L1289.47 25.6002L1294.46 25.8628L1295.26 12.2936L1295.58 6.89175L1290.17 7.00104L1276.97 7.26755" stroke="#9E9E9E" stroke-opacity="0.6" stroke-width="10"/>
<path d="M1288.73 175.631L1288.73 175.621L1288.74 175.612C1294.55 164.113 1295.66 156.757 1297 113.844C1297.67 91.8551 1298.87 65.2592 1299.68 54.7153C1300.34 44.3273 1301 30.487 1301 24.0001V11.8667V6.25162L1306.58 6.90018L1312.31 7.56683L1312.45 7.58313L1312.59 7.60733C1315.42 8.09933 1326.76 9.27802 1337.82 10.357L1337.83 10.3582C1360.82 12.6575 1390.18 18.4523 1414.17 25.3254C1460.05 38.3196 1508.09 63.4388 1548.03 94.8712L1548.03 94.8776L1548.04 94.8841C1565.81 108.99 1599.28 142.462 1613.79 160.761L1613.79 160.761C1655.99 214.023 1686.42 276.935 1704.71 348.745C1707.54 359.604 1710.66 373.771 1712.94 385.333C1714.08 391.115 1715.02 396.299 1715.61 400.126C1715.9 402.024 1716.12 403.672 1716.23 404.919C1716.28 405.522 1716.32 406.17 1716.31 406.759C1716.3 407.037 1716.28 407.479 1716.19 407.969C1716.14 408.215 1716.05 408.606 1715.86 409.051C1715.7 409.45 1715.31 410.247 1714.49 410.963C1713.82 411.55 1713.1 411.856 1712.96 411.918L1712.94 411.925C1712.64 412.053 1712.34 412.164 1712.08 412.255C1711.54 412.44 1710.87 412.643 1710.14 412.853C1708.65 413.277 1706.65 413.803 1704.3 414.39C1699.6 415.567 1693.37 417.031 1686.9 418.494C1674.07 421.395 1659.87 424.386 1654.67 425.088L1654.66 425.089L1654.66 425.09C1646.25 426.201 1634.02 426.667 1622.4 426.55C1610.85 426.433 1599.39 425.736 1592.62 424.37C1579.63 421.812 1569.14 417.496 1561.81 411.191C1554.31 404.742 1550.33 396.376 1550.33 386.533C1550.33 381.439 1552.28 372.558 1555.25 363.643C1557.8 355.72 1559.12 350.101 1559.5 345.111C1559.86 340.21 1559.33 335.676 1557.83 329.93C1553.24 312.444 1539.36 295.323 1524.69 288.402C1520.75 286.597 1518.73 285.8 1516.85 285.413C1515.05 285.041 1513.12 284.995 1509.27 285.255L1509.25 285.257L1509.22 285.258C1503.99 285.562 1499.82 286.547 1495.98 288.391C1492.11 290.25 1488.3 293.109 1483.96 297.51L1483.95 297.517C1472.2 309.397 1463.13 327.555 1461.91 340.842C1461.46 346.073 1461.94 349.918 1464.81 359.96L1464.81 359.97C1467.06 367.904 1468.36 373.964 1467.77 379.137C1467.12 384.812 1464.3 388.771 1460.34 392.736C1452.51 400.557 1440.86 404.787 1425.69 406.276C1410.49 407.768 1391.16 406.57 1367.26 402.945C1357.21 401.471 1323.37 396.141 1306.96 393.473L1302.58 392.81L1298.33 392.166V387.867V359.6C1298.33 344.056 1297.67 326.452 1297.03 320.572C1294.01 295.82 1287.43 280.748 1277.42 272.779C1267.57 264.941 1253.05 262.942 1231.36 267.812L1231.35 267.815L1231.33 267.818C1212.13 272.011 1198.72 272.192 1187.56 266.768C1178.24 262.258 1171.61 255.573 1166.62 245.89C1163.87 240.549 1162.72 233.865 1162.87 227.305C1163.01 220.716 1164.48 213.818 1167.38 207.934C1172.46 197.493 1180.89 188.822 1190.34 185.198L1190.36 185.193L1190.37 185.188C1195.48 183.263 1202.9 182.867 1210.96 183.394C1219.21 183.933 1228.78 185.49 1238.55 187.951L1238.56 187.954L1238.57 187.957C1254.27 191.98 1264.78 192.754 1272.28 190.753C1279.32 188.873 1284.37 184.346 1288.73 175.631Z" stroke="#9E9E9E" stroke-opacity="0.6" stroke-width="10"/>
<path d="M649.851 264.847L649.797 264.882C641.88 270.059 636.14 277.298 631.192 288.042L631.187 288.053L631.182 288.064C628.197 294.629 626.941 300.822 627.838 308.11C628.704 315.153 631.552 322.939 636.134 332.778L636.143 332.797L636.152 332.816C639.531 339.911 641.175 343.574 642.042 346.48C642.834 349.132 643 351.224 643 355.333C643 359.32 642.826 361.389 642.344 363.242C641.855 365.124 640.976 367.07 639.054 370.715C631.536 384.664 618.634 393.428 598.277 397.353C583.267 400.123 552.78 399.042 514.811 393.846M649.851 264.847L640.667 330.667C647.333 344.667 648 346.8 648 355.333C648 363.467 647.333 365.733 643.467 373.067C635.067 388.667 620.667 398.133 599.2 402.267C583.333 405.2 552.133 404 514.133 398.8C497.6 396.533 483.2 394.667 481.867 394.667C480.133 394.667 479.467 396.267 478.8 402.267C475.6 432 468.4 506.8 467.733 516.4C465.867 544.667 476.267 565.333 492.267 565.333C494.933 565.333 502.933 562 513.6 556.533C530.667 547.733 530.667 547.733 540 548.267M649.851 264.847L649.906 264.813C652.385 263.281 654.703 262.111 657.245 261.356C659.806 260.597 662.346 260.333 665.2 260.333C669.929 260.333 673.846 260.975 678.353 263.536C682.496 265.889 687.004 269.8 693.285 275.684L693.296 275.695L693.307 275.705C702.62 284.535 708.701 292.844 711.11 302.808C713.502 312.702 712.083 323.456 708.126 336.759C703.969 350.815 703.643 359.324 706.106 365.014C708.439 370.408 713.923 374.629 725.501 378.297C731.515 380.183 741.69 381.199 755.669 381.067C769.512 380.936 786.649 379.689 806.324 377.304C822.395 375.312 840.037 373.667 845.067 373.667H853.867H858.203L858.817 377.96L859.61 383.515C859.802 384.726 859.928 387.109 860.036 389.948C860.152 393.013 860.257 397.039 860.349 401.735C860.533 411.133 860.667 423.289 860.733 435.969C860.999 478.879 860.895 483.226 857.947 496.423C852.435 521.353 840.094 540.882 822.627 549.41C817.414 552.049 812.307 553.246 805.882 552.858C799.701 552.484 792.396 550.646 782.745 547.563L782.744 547.562C772.877 544.408 767.419 542.839 763.208 542.192C759.258 541.585 756.328 541.778 751.437 542.54L751.427 542.542C732.978 545.38 713.835 563.614 706.781 586.663L706.777 586.675L706.774 586.688C703.852 596.061 703.756 603.323 706.264 612.058C708.819 620.563 711.724 625.605 718.796 632.926L718.803 632.934L718.811 632.941C729.928 644.547 745.397 650.492 760.93 649.283M649.851 264.847L760.93 649.283M514.811 393.846L514.134 398.792L514.813 393.846C514.812 393.846 514.812 393.846 514.811 393.846ZM514.811 393.846C506.537 392.712 498.789 391.676 492.938 390.924C490.014 390.548 487.551 390.241 485.728 390.028C484.112 389.838 482.573 389.667 481.867 389.667C480.607 389.667 479.088 389.98 477.7 391.048C476.418 392.035 475.716 393.313 475.3 394.337C474.535 396.224 474.154 398.801 473.831 401.714L473.83 401.723L473.829 401.732C470.629 431.462 463.419 506.348 462.745 516.054L462.745 516.062L462.744 516.071C461.771 530.81 463.955 543.994 468.831 553.71C473.719 563.447 481.742 570.333 492.267 570.333C493.729 570.333 495.335 569.925 496.697 569.505C498.191 569.045 499.931 568.395 501.845 567.604C505.681 566.017 510.478 563.752 515.881 560.983L515.892 560.977C524.65 556.461 528.419 554.541 531.194 553.672C533.499 552.95 534.95 552.986 539.692 553.257M539.692 553.257C539.685 553.257 539.677 553.256 539.67 553.256L540 548.267M539.692 553.257C553.88 554.202 566.189 561.982 576.481 577.668M539.692 553.257C539.699 553.258 539.707 553.258 539.715 553.259L540 548.267M540 548.267C556.133 549.333 569.733 558.267 580.667 574.933M466.4 798.133C466.8 798.667 483.867 796.267 504.267 792.933C524.667 789.467 548.8 786 558 785.2C583.2 782.933 604.267 785.067 616.8 791.467C638.267 802.267 642.533 818.133 633.867 855.867C628.267 880.267 628 892.667 633.2 903.067M466.4 798.133L462.865 801.669C462.709 801.513 462.571 801.354 462.449 801.198M466.4 798.133L462.4 801.133C462.416 801.155 462.433 801.177 462.449 801.198M466.4 798.133C466 797.733 464.8 790.933 463.867 783.067C463.716 781.778 463.545 780.306 463.358 778.698C462.385 770.327 460.985 758.282 459.867 749.333C456.8 723.467 456.667 688.933 459.733 677.733M462.449 801.198C463.115 802.057 463.886 802.48 464.261 802.661C464.692 802.868 465.068 802.975 465.29 803.03C465.732 803.139 466.112 803.173 466.309 803.187C466.737 803.217 467.167 803.209 467.499 803.196C468.204 803.169 469.108 803.093 470.126 802.989C472.189 802.777 475.067 802.414 478.519 801.936C485.439 800.979 494.849 799.539 505.073 797.868L505.089 797.865L505.104 797.863C525.49 794.398 549.451 790.962 558.433 790.181L558.441 790.181L558.448 790.18C583.395 787.936 603.286 790.18 614.526 795.92L614.54 795.927L614.553 795.933C624.411 800.893 629.603 806.581 631.801 814.851C634.133 823.626 633.301 835.996 628.994 854.747L628.993 854.748C623.391 879.159 622.665 893.152 628.714 905.274M462.449 801.198C461.986 800.604 461.762 800.056 461.713 799.938C461.711 799.932 461.709 799.927 461.707 799.923C461.583 799.627 461.492 799.349 461.431 799.15C461.306 798.737 461.191 798.27 461.088 797.812C460.878 796.875 460.645 795.647 460.405 794.242C459.922 791.414 459.377 787.662 458.902 783.656L458.9 783.646C458.75 782.353 458.578 780.878 458.391 779.268C457.418 770.894 456.021 758.878 454.905 749.954L454.903 749.938L454.902 749.922C453.342 736.771 452.534 721.476 452.5 708.046C452.467 694.851 453.173 682.784 454.905 676.435M628.714 905.274C628.709 905.265 628.705 905.256 628.7 905.246L633.2 903.067M628.714 905.274C628.719 905.284 628.723 905.293 628.728 905.303L633.2 903.067M628.714 905.274C633.447 915.031 640.268 921.195 651.786 926.883L651.79 926.885C672.943 937.308 698.446 927.077 708.17 904.962C710.619 899.502 711.456 894.099 710.459 887.608C709.499 881.357 706.852 874.203 702.68 865.119C698.356 855.673 696.045 849.632 695.052 844.683C694.107 839.97 694.325 836.076 695.537 830.866C701.34 805.924 719.633 788.377 745.838 782.758C752.477 781.358 764.197 780.866 777.807 781.347C791.3 781.824 806.203 783.238 819.012 785.46L819.025 785.462C824.493 786.396 829.599 787.263 833.391 787.898C835.286 788.215 836.861 788.476 837.992 788.657C838.555 788.748 839.023 788.821 839.371 788.873C839.542 788.899 839.705 788.922 839.845 788.94C839.913 788.949 840 788.96 840.091 788.969C840.119 788.972 840.37 789 840.667 789C843.459 789 844.869 786.965 845.198 786.449C845.667 785.713 845.924 784.958 846.068 784.478C846.379 783.444 846.599 782.166 846.774 780.825C847.136 778.068 847.427 774.098 847.661 769.032C848.133 758.854 848.4 743.767 848.467 724.017M633.2 903.067L819.867 780.533C830.8 782.4 840.267 784 840.667 784C842.4 784 843.333 763.467 843.467 724C843.6 693.2 843.067 682.533 841.467 674.8C836.667 652.267 826.533 642.133 808.667 642.267M848.467 724.017L843.475 724L848.467 724.022C848.467 724.02 848.467 724.019 848.467 724.017ZM848.467 724.017C848.599 693.365 848.09 682.134 846.363 673.787L846.36 673.773L846.357 673.758C843.861 662.04 839.836 652.792 833.491 646.487C826.991 640.027 818.61 637.196 808.65 637.267M808.65 637.267C808.656 637.267 808.661 637.267 808.667 637.267V642.267M808.65 637.267C800.819 637.269 795.477 638.587 783.531 643.203L783.53 643.203C773.745 646.987 766.652 648.804 760.93 649.283M808.65 637.267C808.643 637.267 808.636 637.267 808.629 637.267L808.667 642.267M808.667 642.267L760.93 649.283M454.905 676.435C454.903 676.442 454.901 676.449 454.899 676.456L459.733 677.733M454.905 676.435C457.492 666.656 461.323 658.48 466.244 652.644C471.2 646.766 477.524 643 484.8 643C488.323 643 491.178 643.349 495.293 645.015C499.069 646.544 503.992 649.218 511.775 653.637M454.905 676.435C454.907 676.428 454.909 676.42 454.911 676.413L459.733 677.733M459.733 677.733C464.667 659.067 474 648 484.8 648C490.8 648 493.6 649.067 509.333 658C521.2 664.533 521.467 664.667 532.667 664.667M511.775 653.637C517.904 657.011 520.356 658.322 522.634 658.979C524.772 659.595 526.879 659.667 532.646 659.667M511.775 653.637C511.784 653.642 511.793 653.647 511.802 653.652L509.334 658L511.745 653.62C511.755 653.626 511.765 653.631 511.775 653.637ZM532.667 664.667L532.623 659.667C532.63 659.667 532.638 659.667 532.646 659.667M532.667 664.667C547.733 664.533 556.4 660.533 569.467 647.467C591.867 625.067 596 598.4 580.667 574.933M532.667 664.667V659.667C532.66 659.667 532.653 659.667 532.646 659.667M532.646 659.667C539.704 659.602 544.869 658.64 549.704 656.385C554.623 654.091 559.575 650.287 565.931 643.931C576.547 633.316 582.554 621.975 584.275 610.836C585.989 599.753 583.529 588.454 576.481 577.668M576.481 577.668L580.667 574.933M576.481 577.668C576.483 577.671 576.484 577.673 576.486 577.676L580.667 574.933" stroke="#9E9E9E" stroke-opacity="0.6" stroke-width="10"/>
<path d="M1304.56 410.854L1304 418.4M1304.56 410.854L1392 645.867C1402.8 646 1404.93 645.6 1413.07 641.733C1435.6 631.067 1449.07 605.067 1444.13 581.467C1438.67 555.067 1415.2 529.733 1392.4 525.467M1304.56 410.854L1304.48 410.846L1304.93 405.867L1309.92 406.238L1304.56 410.854ZM1304 418.4C1302.53 437.467 1304.13 489.6 1306.53 501.067C1310.4 519.467 1317.47 530.933 1328.13 536M1304 418.4L1299.01 418.017L1363.04 536.727M1304 418.4L1299.01 418.029L1299.01 418.023C1298.26 427.847 1298.3 445.875 1298.82 462.737C1299.33 479.448 1300.33 495.836 1301.64 502.091L1301.64 502.095C1305.63 521.085 1313.22 534.437 1325.96 540.501M1328.13 536C1336.53 540.133 1344.67 539.2 1361.07 532.133C1376.67 525.467 1383.87 524 1392.4 525.467M1328.13 536L1325.93 540.486C1325.94 540.491 1325.95 540.496 1325.96 540.501M1328.13 536L1325.99 540.516C1325.98 540.511 1325.97 540.506 1325.96 540.501M1392.4 525.467L1391.55 530.394C1391.54 530.392 1391.53 530.39 1391.52 530.388M1392.4 525.467L1391.48 530.381C1391.49 530.384 1391.5 530.386 1391.52 530.388M1391.52 530.388C1384.48 529.185 1378.39 530.167 1363.04 536.727M1391.52 530.388C1401.54 532.276 1412.19 538.931 1421.1 548.561C1429.98 558.166 1436.72 570.302 1439.24 582.481L1439.24 582.49C1443.67 603.702 1431.49 627.48 1410.93 637.214L1410.92 637.218C1406.89 639.133 1404.81 639.956 1402.57 640.393C1400.25 640.847 1397.51 640.934 1392.06 640.867L1392.03 640.867H1392C1387 640.867 1383.83 640.67 1380.46 640.023C1377.02 639.362 1373.21 638.2 1366.95 636.07M1363.04 536.727L1296.34 759.082C1296.34 759.083 1296.34 759.083 1296.34 759.084M1363.04 536.727C1354.73 540.309 1348.05 542.546 1342.18 543.233C1336.09 543.945 1331 542.976 1325.96 540.501M1363.04 536.727C1363.04 536.728 1363.03 536.73 1363.03 536.731L1361.07 532.134L1363.05 536.725C1363.04 536.726 1363.04 536.726 1363.04 536.727ZM1366.95 636.07C1366.96 636.071 1366.96 636.072 1366.96 636.072L1365.33 640.8L1366.94 636.067C1366.95 636.068 1366.95 636.069 1366.95 636.07ZM1366.95 636.07C1354.7 631.853 1345.33 629.56 1337.48 629.905C1329.18 630.269 1323 633.547 1317.18 639.218L1317.18 639.221C1307.98 648.187 1302.33 661.065 1299.17 679.994C1296.02 698.881 1295.27 724.351 1296.34 759.084M1296.34 759.084C1296.8 774.687 1297.07 783.221 1297.56 787.802C1297.79 789.873 1298.12 792.116 1299.14 793.823C1299.79 794.91 1300.77 795.892 1302.14 796.473C1303.34 796.982 1304.44 797 1304.93 797C1305.5 797 1306.19 796.908 1306.61 796.85C1307.16 796.774 1307.84 796.667 1308.63 796.537C1310.2 796.275 1312.3 795.902 1314.74 795.45C1319.64 794.544 1326.03 793.306 1332.71 791.97L1332.73 791.967L1332.74 791.963C1353.16 787.748 1359.1 787.13 1374.02 787M1296.34 759.084L1374.02 787M1374.02 787C1383.06 787 1387.09 787.05 1390 787.533C1392.6 787.964 1394.27 788.728 1398.75 790.899C1403.28 793.102 1406.5 795.37 1409.18 798.235C1411.9 801.13 1414.26 804.855 1416.8 810.25C1419.55 816.167 1420.46 819.887 1419.62 825.585C1418.69 831.873 1415.62 840.531 1409.36 856.13C1407.5 860.725 1406.25 864.102 1405.62 867.475C1404.97 870.926 1405 874.12 1405.27 878.288C1405.48 882.353 1405.8 885.503 1406.71 888.558C1407.62 891.643 1409.06 894.343 1411.05 897.638C1414.4 903.268 1418.03 907.62 1422.61 910.617C1427.24 913.649 1432.42 915.019 1438.35 915.39L1438.37 915.391L1438.38 915.392C1440.95 915.539 1443.81 915.501 1446.4 915.302C1448.86 915.113 1451.5 914.749 1453.47 914.069C1460.18 911.845 1466.76 905.672 1471.78 898.935C1476.89 892.069 1481.09 883.642 1482.4 875.897L1482.4 875.877L1482.4 875.857C1482.78 873.5 1482.65 870.035 1482.29 866.329C1481.93 862.461 1481.27 857.822 1480.39 852.857L1480.39 852.845C1478.81 844.085 1478.27 838.331 1478.63 833.656C1478.99 829.14 1480.2 825.378 1482.59 820.659C1485.09 815.728 1487.11 812.695 1489.45 810.352C1491.78 808.023 1494.7 806.112 1499.39 803.83L1499.4 803.824C1516.78 795.318 1542.35 793.501 1598.91 798.315C1615.96 799.769 1632.39 801 1635.07 801C1635.11 801 1635.16 801 1635.21 801C1636.19 801.002 1637.94 801.006 1639.68 800.287C1641.69 799.458 1643.07 797.988 1644.19 796.412C1646.16 793.642 1648.61 788.568 1652.76 779.962L1653.17 779.111C1653.17 779.109 1653.17 779.107 1653.17 779.105M1374.02 787L1653.17 779.105M1653.17 779.105C1663.28 758.213 1686.29 700.402 1693.83 676.857M1653.17 779.105L1693.83 676.857M1693.83 676.857C1710 626.73 1719.12 569.326 1721.26 505.501L1721.26 505.49L1721.26 505.48C1721.67 491.686 1721.53 472.284 1721.08 456.011C1720.86 447.873 1720.55 440.467 1720.19 434.903C1720.01 432.13 1719.81 429.752 1719.59 427.947C1719.48 427.052 1719.36 426.218 1719.22 425.512C1719.15 425.161 1719.06 424.77 1718.94 424.383C1718.85 424.103 1718.66 423.52 1718.29 422.903C1717.45 421.479 1716.19 420.768 1715.29 420.429C1714.38 420.09 1713.5 419.991 1712.85 419.958C1711.53 419.893 1709.98 420.054 1708.33 420.308C1704.94 420.827 1699.88 421.943 1692.7 423.672C1663.27 430.698 1652.8 432.36 1634.44 433.272C1611.65 434.25 1592.1 431.52 1577.07 425.824C1562.03 420.123 1551.88 411.614 1547.07 401.23L1547.06 401.201L1547.04 401.172C1543.22 393.21 1543.13 385.317 1548.92 366.109L1548.92 366.096L1548.93 366.083C1551.89 356.044 1553.51 348.377 1553.4 341.37C1553.28 334.187 1551.36 328.083 1547.96 321.134L1547.96 321.13C1544.03 313.136 1538.05 305.767 1531.69 300.357C1525.51 295.108 1518.13 291 1511.33 291C1509.64 291 1507.59 291.483 1505.88 291.989C1504.04 292.535 1502.02 293.28 1500.2 294.113C1492.96 297.38 1485.67 304.705 1480.13 312.55C1474.58 320.417 1470.08 329.822 1469.29 337.917L1469.29 337.951L1469.28 337.985C1468.8 343.827 1469.86 348.751 1472.62 356.482L1472.63 356.501L1472.64 356.52C1474.93 362.762 1475.83 368.17 1475.53 373.325C1475.22 378.476 1473.7 383.669 1470.75 389.459L1470.74 389.466C1464.26 402.215 1451.65 409.65 1426.48 412.635L1426.48 412.635C1411.5 414.411 1392.92 413.062 1354.92 407.062L1693.83 676.857Z" stroke="#9E9E9E" stroke-opacity="0.6" stroke-width="10"/>
<path d="M887.017 369.677L887.024 369.676L887.032 369.676C911.509 368.196 919.835 368.198 946.939 369.674L946.949 369.675C975.313 371.28 996.483 374.238 1011.28 379.1C1026 383.937 1035.68 391.108 1038.69 402.005L1038.7 402.038L1038.7 402.071C1039.79 406.244 1039.5 410.953 1038.19 416.341C1036.89 421.741 1034.48 428.196 1030.96 436.045L1030.95 436.064L1030.95 436.082C1027.75 443.066 1026.02 448.009 1025.26 452.415C1024.52 456.725 1024.66 460.785 1025.59 466.053C1032.05 501.595 1069.95 518.95 1100.63 500.646C1104.75 498.174 1109.78 493.836 1114.41 488.825C1119.04 483.806 1122.92 478.488 1124.96 474.238L1124.97 474.212L1124.98 474.187C1129.54 464.964 1130.24 453.496 1126.81 441.839C1122.77 428.646 1121.73 421.509 1123.69 413.83L1123.7 413.8L1123.7 413.771C1126.58 403.04 1135.81 396.563 1149.57 392.917C1163.31 389.276 1182.83 388.066 1208.8 388.735L1208.81 388.735C1237.12 389.54 1256.36 391.559 1276.46 395.765C1279.18 396.297 1281.72 396.792 1283.63 397.154C1284.59 397.337 1285.38 397.482 1285.93 397.58C1286.22 397.63 1286.42 397.663 1286.54 397.682C1286.54 397.682 1286.55 397.683 1286.55 397.683C1288.25 397.819 1289.34 398.764 1289.8 399.255C1290.31 399.8 1290.59 400.334 1290.7 400.57C1290.94 401.072 1291.05 401.521 1291.09 401.692C1291.19 402.113 1291.26 402.547 1291.3 402.866C1291.39 403.562 1291.47 404.486 1291.54 405.549C1291.69 407.704 1291.84 410.769 1291.98 414.492C1292.26 421.955 1292.53 432.225 1292.73 443.511C1293.14 466.32 1294.07 488.431 1294.81 493.232C1299.78 524.516 1309.6 540.729 1325.01 548.314L1325.01 548.317C1329.48 550.522 1333.66 551.398 1339.03 550.889C1344.63 550.358 1351.66 548.313 1361.74 544.291C1371.01 540.557 1377.9 538.282 1383.99 537.799C1390.41 537.289 1395.56 538.792 1401.29 541.654C1406.53 544.236 1412.07 548.923 1416.93 554.219C1421.84 559.568 1426.37 565.886 1429.42 572.052L1429.42 572.062C1431.32 575.928 1432.63 578.939 1433.4 582.154C1434.17 585.39 1434.33 588.565 1434.33 592.667C1434.33 609.909 1424.83 624.804 1409.5 631.634C1399.09 636.279 1388.67 635.222 1365.37 629.663L1366.37 625.484L1365.37 629.663C1349.22 625.809 1338.73 624.485 1330.98 625.492C1323.66 626.441 1318.5 629.508 1313.06 635.595L1313.04 635.624L1313.01 635.652C1309.05 639.964 1304.85 647.475 1300.97 657.649C1297.13 667.72 1293.74 680.026 1291.18 693.592L1291.18 693.602L1291.18 693.611C1289.94 700.043 1289.2 712.791 1289.1 728.232C1289 743.542 1289.53 761.106 1290.72 776.959L1290.72 776.99L1290.72 777.021C1291.06 782.393 1291.3 787.388 1291.4 791.13C1291.45 792.992 1291.47 794.598 1291.45 795.804C1291.43 796.395 1291.41 796.976 1291.36 797.476C1291.34 797.717 1291.31 798.045 1291.24 798.392C1291.2 798.565 1291.14 798.827 1291.04 799.128C1290.96 799.364 1290.74 799.965 1290.27 800.6L1289.84 801.171L1289.27 801.6C1288.82 801.935 1288.4 802.125 1288.32 802.163L1288.31 802.167C1288.16 802.237 1288.03 802.289 1287.94 802.321C1287.77 802.387 1287.6 802.447 1287.46 802.494C1287.16 802.593 1286.79 802.708 1286.37 802.835C1285.51 803.091 1284.31 803.434 1282.82 803.851C1279.84 804.685 1275.61 805.837 1270.44 807.215C1260.1 809.97 1245.98 813.642 1230.56 817.513C1182.15 829.948 1172.68 832.063 1162.03 832.067C1148.17 832.202 1136.77 829.331 1129.27 822.336C1127.24 820.468 1125.55 818.271 1124.52 815.499C1123.5 812.745 1123.25 809.772 1123.54 806.539C1124.09 800.303 1126.77 792.171 1131.22 780.957L1131.22 780.953C1139.4 760.379 1141 753.202 1141 741.6C1141 714.255 1124.45 693.494 1100.42 689.05C1076.74 684.693 1048.46 703.776 1038.61 733.181C1035.16 743.524 1035.24 752.6 1039.39 769.859C1041.67 778.741 1043.04 787.493 1042.72 792.579L1042.72 792.592C1042.53 795.506 1042.29 798.323 1041.14 800.721C1039.85 803.394 1037.75 804.952 1035.72 806.284C1028.83 811.013 1017.98 813 1005.6 813C1003.94 813 1000.39 812.628 995.879 812.078C991.21 811.508 985.126 810.694 978.137 809.716C964.153 807.76 946.471 805.136 929.073 802.459C911.676 799.781 894.542 797.048 881.656 794.874C875.218 793.788 869.812 792.836 865.955 792.099C864.035 791.732 862.448 791.408 861.293 791.14C860.727 791.008 860.184 790.872 859.73 790.734C859.512 790.668 859.212 790.571 858.9 790.44C858.746 790.376 858.502 790.267 858.227 790.108C858.032 789.996 857.42 789.637 856.85 788.963L856.755 788.851L856.667 788.733C856.147 788.041 855.932 787.376 855.87 787.183C855.777 786.893 855.722 786.64 855.69 786.477C855.625 786.145 855.586 785.821 855.561 785.569C855.508 785.045 855.473 784.41 855.447 783.731C855.396 782.351 855.375 780.486 855.384 778.297C855.4 773.906 855.536 768.04 855.805 761.785C857.271 727.66 857.116 698.041 855.703 685.936C851.516 652.733 840.728 637.009 823.407 631.869C815.024 629.497 805.82 630.169 785.744 636.377C772.101 640.606 766.68 641.524 756.738 641.666L756.703 641.667H756.667C751.803 641.667 748.29 641.544 745.17 640.92C741.905 640.267 739.316 639.118 736.217 637.498L736.209 637.493L736.201 637.489C722.605 630.318 713.73 617.258 712.226 601.972C709.82 579.02 727.127 555.947 750.291 550.34L750.311 550.335L750.331 550.331C754.235 549.42 757.124 548.781 760.241 548.869C763.308 548.955 766.357 549.739 770.649 550.91L770.67 550.915L770.691 550.921C776.006 552.42 784.774 555.253 790.359 557.295C802.775 561.671 812.73 561.28 824.126 555.881L824.128 555.88C837.74 549.439 846.38 540.322 856.055 520.842C862.521 507.781 865.84 497.949 868.554 483.604L868.555 483.601C870.428 473.734 870.476 469.769 869.14 442.915L869.139 442.907C867.806 415.251 867.005 398.561 866.604 388.771C866.404 383.89 866.301 380.658 866.284 378.622C866.275 377.628 866.285 376.788 866.332 376.144C866.353 375.856 866.395 375.377 866.516 374.872C866.571 374.642 866.705 374.124 867.017 373.544C867.235 373.139 868.069 371.699 869.94 371.105C870.192 371.023 870.37 370.985 870.399 370.978L870.403 370.978C870.565 370.941 870.706 370.916 870.789 370.903C870.965 370.874 871.143 370.851 871.29 370.834C871.597 370.797 871.986 370.759 872.422 370.719C873.306 370.638 874.525 370.54 875.975 370.431C878.884 370.212 882.805 369.944 887.017 369.677ZM1208.67 393.733C1156.93 392.4 1132.93 398.667 1128.53 415.067L1275.47 400.667C1255.73 396.533 1236.8 394.533 1208.67 393.733Z" stroke="#9E9E9E" stroke-opacity="0.6" stroke-width="10"/>
<path d="M332.389 809.533C323.018 806.36 315.385 801.135 310.994 794.17C308.209 789.912 307.561 784.608 308.181 779.031C308.806 773.404 310.77 766.995 313.816 760.003L313.82 759.994L313.824 759.985C320.07 745.801 321.444 739.376 320.621 730.319L320.617 730.283L320.615 730.247C319.44 714.858 308.64 699.839 291.749 691.265C281.717 686.251 272.717 684.48 264.86 685.446C257.073 686.403 249.952 690.102 243.663 696.87L243.654 696.879L243.646 696.888C228.827 712.679 224.542 734.577 232.241 759.314L232.244 759.324L232.247 759.334C235.612 770.303 237.444 779.055 237.35 785.853C237.252 792.825 235.075 798.551 229.695 802.035C228.715 802.695 227.526 803.178 226.553 803.529C225.446 803.928 224.162 804.312 222.806 804.669C220.088 805.384 216.852 806.051 213.702 806.541L213.665 806.546L213.628 806.552C198.347 808.694 184.424 806.861 144.291 798.224C117.82 792.637 99.7974 789.193 84.6026 786.813C83.2562 786.625 81.3174 786.24 79.3913 784.49C77.8243 783.065 76.5592 780.989 75.2488 778.427C72.563 773.178 68.4625 763.322 60.8472 744.847C37.2493 688.13 28.885 660.067 17.2231 598.943C11.6995 570.379 6.87889 525.595 5.40436 489.541C4.71842 473.34 7.17244 441.374 11.8451 406.797L11.8454 406.795L512.122 566.683C512.121 566.684 512.12 566.684 512.12 566.684C521.791 562.082 528.991 559.191 535.16 558.182C541.705 557.111 546.901 558.18 552.41 560.816M332.389 809.533C332.392 809.534 332.394 809.535 332.397 809.536L334 804.8L332.387 809.533C332.388 809.533 332.388 809.533 332.389 809.533ZM332.389 809.533C335.978 810.756 341.264 811.484 347.334 811.899C353.532 812.322 360.969 812.443 369.099 812.282C385.358 811.962 404.617 810.514 422.678 808.02L422.677 808.021L422.001 803.077L422.684 808.02L450.01 804.287L454.633 803.656L454.322 799.001L453.922 793.001L453.92 792.968L453.917 792.935C453.641 789.484 452.162 775.921 450.564 762.735M450.564 762.735C450.564 762.737 450.565 762.739 450.565 762.741L445.601 763.333L450.564 762.732C450.564 762.733 450.564 762.734 450.564 762.735ZM450.564 762.735C448.659 746.768 447.633 726.732 447.533 709.072C447.484 700.247 447.666 692.072 448.078 685.339C448.497 678.492 449.136 673.503 449.88 670.82M449.88 670.82C449.879 670.822 449.879 670.824 449.878 670.826L445.068 669.467L449.884 670.807C449.882 670.812 449.881 670.816 449.88 670.82ZM449.88 670.82C453.189 659.115 458.569 649.317 464.701 643.303L464.718 643.286L464.736 643.269C468.653 639.351 471.766 637.037 474.808 635.649C477.79 634.289 481.039 633.667 485.467 633.667C488.8 633.667 490.676 633.868 493.401 634.798C496.433 635.834 500.474 637.76 508.031 641.539L508.039 641.543L508.048 641.547C521.605 648.26 526.642 650.333 533.467 650.333C544.247 650.333 554.933 644.429 564.016 634.92L564.017 634.919C571.423 627.16 576.334 619.135 578.331 610.722C580.35 602.221 579.29 593.754 575.484 585.395L575.481 585.388C570.804 575.157 561.501 565.13 552.41 560.816M552.41 560.816C552.416 560.819 552.421 560.821 552.426 560.824L550.27 565.326L552.41 560.816ZM457.78 522.485L457.779 522.472C455.839 501.526 457.878 475.011 465.755 416.804L465.758 416.782L465.76 416.761C466.429 411.483 467.065 406.259 467.535 402.113C467.983 398.16 468.333 394.759 468.333 393.467V389.867V385.283L463.767 384.885L436.167 382.485L436.161 382.485C394.903 378.947 364.902 378.237 342.924 380.937C320.904 383.643 306.223 389.855 296.416 400.789C289.748 408.198 286.186 416.006 286.503 425.828C286.806 435.232 290.666 445.979 297.395 459.436L297.399 459.445L297.404 459.454C303.633 471.785 305.467 480.083 304.746 490.307C302.701 518.696 272.344 540.475 245.164 533.171L245.158 533.169C231.004 529.387 217.542 518.556 211.414 506.181L211.403 506.159L211.391 506.136C207.365 498.208 205.56 491.332 205.798 483.078C206.042 474.615 208.441 464.425 213.399 449.88L213.402 449.872L213.405 449.864C219.186 432.719 221.982 420.004 220.114 410.06C218.102 399.352 210.971 392.865 200.387 387.537C192.887 383.748 179.425 381.094 164.391 379.559C149.119 378 131.454 377.526 115.047 378.475L457.78 522.485ZM457.78 522.485L457.781 522.497M457.78 522.485L457.781 522.497M457.781 522.497C460.008 547.912 464.888 559.822 474.813 568.818M457.781 522.497L474.813 568.818M474.813 568.818C480.078 573.53 483.601 575.111 488.058 574.969C493.158 574.807 500.101 572.391 512.118 566.685L474.813 568.818Z" stroke="#9E9E9E" stroke-opacity="0.6" stroke-width="10"/>
<path d="M238.688 716.112L238.7 716.088L238.711 716.065C242.71 707.913 251.579 699.389 260.429 695.331C266.095 692.667 271.874 691.992 278.202 693.605C284.303 695.16 290.653 698.775 297.782 704.12C307.405 711.197 313.667 722.473 313.667 733.6C313.667 736.201 312.92 740.135 311.877 744.457C310.793 748.946 309.26 754.359 307.437 760.164L307.432 760.181L307.426 760.198C303.089 773.677 301.399 781.838 301.853 787.981C302.273 793.667 304.577 798.085 309.954 803.956L309.96 803.963C317.309 812.018 326.933 816.979 343.005 818.937C359.319 820.924 381.897 819.766 414.719 815.705C429.635 813.857 444.547 812.333 447.733 812.333C448.854 812.333 449.972 812.356 450.964 812.476C451.9 812.59 453.295 812.848 454.6 813.707C456.141 814.722 456.959 816.159 457.335 817.525C457.647 818.658 457.667 819.797 457.667 820.533C457.667 820.52 457.667 820.528 457.669 820.561C457.675 820.646 457.692 820.901 457.741 821.404C457.8 822.016 457.889 822.84 458.008 823.861C458.246 825.899 458.592 828.651 459.024 831.931C459.887 838.485 461.083 847.091 462.413 856.203C466.433 883.268 467.398 893.784 467.533 912.631L467.533 912.644C467.6 927.607 466.951 938.298 464.711 946.602C462.387 955.216 458.396 961.125 452.297 966.632C446.946 971.522 441.467 974.311 433.8 973.927C426.792 973.576 418.281 970.56 406.677 965.52C401.126 963.113 398.024 961.914 395.313 961.261C392.713 960.635 390.285 960.467 386 960.467C381.895 960.467 379.508 960.636 377.311 961.129C375.106 961.623 372.838 962.5 369.044 964.266L369.036 964.27L369.029 964.273C358.002 969.363 346.683 980.634 341.025 992.198L341.02 992.207C339.063 996.186 338.142 998.462 337.592 1000.88C337.025 1003.37 336.797 1006.24 336.597 1011.52L336.596 1011.53L336.596 1011.54C336.22 1020.51 337.387 1027.96 340.15 1034.6C342.914 1041.24 347.398 1047.37 354.061 1053.53L354.065 1053.53C358.306 1057.46 361.925 1059.88 365.712 1061.39C369.494 1062.89 373.766 1063.6 379.495 1063.67C384.252 1063.67 386.362 1063.55 388.94 1062.81C391.767 1062 395.245 1060.42 402.501 1056.96C413.496 1051.63 422.681 1048.5 430.109 1048.27C433.918 1048.15 437.485 1048.78 440.623 1050.46C443.792 1052.15 446.17 1054.72 447.867 1057.89C448.478 1059.02 448.901 1060.42 449.219 1061.67C449.566 1063.03 449.893 1064.64 450.2 1066.42C450.816 1069.99 451.392 1074.45 451.891 1079.31C452.888 1089.02 453.599 1100.58 453.667 1110.23L453.667 1110.25V1110.27C453.667 1128.68 450.777 1148.31 444.446 1173.23C442.314 1181.62 439.833 1192.5 439.072 1197.31L439.062 1197.38L439.051 1197.44C438.103 1202.58 436.413 1208.98 435.058 1211.86L434.989 1212.01L434.911 1212.15L432.778 1216.02L429.675 1221.64L424.984 1217.25L420.897 1213.43C419.958 1212.59 417.774 1210.62 414.815 1207.96C409.942 1203.57 402.969 1197.29 396.001 1191.06L396 1191.06C343.907 1144.46 261.053 1056.25 212.631 995.792L212.628 995.789C176.856 951.04 152.994 916.043 116.504 854.692C104.256 834.19 96.9684 821.833 92.9129 814.415C90.9076 810.747 89.5682 808.065 88.8273 806.119C88.4665 805.171 88.121 804.08 88.0182 802.968C87.9166 801.869 87.9857 799.903 89.5004 798.237L89.9145 797.781L90.4266 797.44C91.2832 796.869 92.0982 796.712 92.3128 796.67C92.6483 796.605 92.9313 796.584 93.0978 796.576C93.4385 796.557 93.7514 796.569 93.9634 796.58C94.4121 796.605 94.9285 796.659 95.446 796.724C96.5064 796.856 97.9197 797.074 99.5595 797.355C102.853 797.918 107.25 798.764 111.968 799.775C189.946 816.121 206.444 817.442 226.324 811.603L226.333 811.6L226.341 811.598C229.957 810.55 233.881 808.079 237.173 804.772C240.481 801.45 242.749 797.69 243.541 794.422L243.549 794.388L243.558 794.355C244.666 790.046 245.052 787.283 244.672 783.215C244.263 778.84 242.966 772.947 240.348 762.405L240.346 762.4C234.639 739.306 233.564 726.84 238.688 716.112Z" stroke="#9E9E9E" stroke-opacity="0.6" stroke-width="10"/>
<path d="M1046.05 729.115L1046.04 729.133C1044.32 732.643 1043.13 735.462 1042.47 738.672C1041.82 741.831 1041.73 745.1 1041.8 749.411L1041.8 749.429L1041.8 749.447C1041.95 755.78 1043.48 766.015 1045.68 774.543C1047.54 782.236 1049 791.18 1049 794.533C1049 800.25 1047.24 804.711 1043.87 808.258C1040.4 811.913 1034.88 814.962 1026.77 817.02L1026.75 817.026L1026.73 817.031C1022.29 818.198 1014.48 818.9 1005.51 818.933C996.653 818.966 987.144 818.344 979.489 817.068L979.473 817.065L979.458 817.063C947.834 811.993 918.165 807.52 896.288 804.481C885.356 802.962 876.336 801.796 869.979 801.093C866.813 800.742 864.24 800.499 862.4 800.388C861.5 800.333 860.654 800.302 859.959 800.324C859.635 800.333 859.156 800.359 858.654 800.452C858.412 800.497 857.97 800.592 857.467 800.804C857.103 800.958 855.881 801.502 855.046 802.894C854.688 803.49 854.532 804.024 854.488 804.172L854.485 804.182C854.407 804.449 854.355 804.692 854.322 804.864C854.253 805.217 854.201 805.598 854.158 805.954C854.07 806.682 853.986 807.629 853.905 808.728C853.742 810.943 853.573 814.005 853.405 817.672C853.07 825.016 852.735 834.918 852.468 845.606L1046.05 729.115ZM1046.05 729.115L1046.06 729.097M1046.05 729.115L1046.06 729.097M1046.06 729.097C1048.87 723.489 1054.08 716.987 1059.67 711.359C1065.25 705.741 1071.72 700.489 1077.34 697.673L1046.06 729.097ZM875.995 1028.46L875.948 1028.48C873.93 1029.19 871.697 1030.55 869.747 1031.99C867.733 1033.48 865.654 1035.32 863.974 1037.24C856.187 1046.1 852.181 1057.65 851.142 1074.8C850.111 1091.82 851.974 1114.91 856.379 1147.34L856.38 1147.35C857.308 1154.11 858.136 1160.8 858.731 1166.12C859.344 1171.61 859.667 1175.28 859.667 1176.27C859.667 1177.81 859.779 1179.42 860.032 1180.8C860.154 1181.47 860.344 1182.28 860.666 1183.06C860.828 1183.45 861.085 1183.98 861.491 1184.52C861.851 1185.01 862.538 1185.78 863.652 1186.28C864.219 1186.54 864.697 1186.64 864.87 1186.68C865.18 1186.74 865.457 1186.77 865.654 1186.79C866.052 1186.82 866.469 1186.83 866.845 1186.83C867.616 1186.84 868.606 1186.8 869.762 1186.73C872.092 1186.6 875.384 1186.34 879.55 1185.96C887.897 1185.21 899.934 1183.97 915.209 1182.3L915.215 1182.3C932.885 1180.35 957.917 1181.42 973.16 1184.88L973.18 1184.88L973.2 1184.88C991.891 1188.97 1000.67 1195.27 1003.31 1202.4L1003.32 1202.44L1003.34 1202.47C1004.64 1205.83 1004.98 1208.35 1004.22 1212.08C1003.37 1216.21 1001.16 1221.78 996.804 1231.08L996.801 1231.09C988.652 1248.57 985.622 1257.72 987.657 1266.7L987.658 1266.71C989.859 1276.38 997.77 1286.83 1006.47 1294.67C1010.91 1298.66 1015.77 1302.18 1020.59 1304.73C1025.33 1307.23 1030.42 1309 1035.2 1309C1040.21 1309 1045.31 1307.16 1049.99 1304.49C1054.71 1301.78 1059.31 1298.03 1063.41 1293.74C1071.51 1285.28 1078.29 1274.02 1079.75 1263.34L1079.76 1263.28L1079.77 1263.22C1080.44 1257.19 1079.11 1251.52 1074.77 1237.82C1067.96 1216.35 1068.2 1208.75 1072.29 1201.9L1072.31 1201.86L1072.33 1201.83C1076.94 1193.82 1085.07 1188.3 1104.05 1182.8C1121.87 1177.71 1133.31 1177.01 1164.2 1179.91L1164.2 1179.91C1202.66 1183.48 1250.42 1193.14 1283.63 1204.08C1287.68 1205.43 1291.42 1206.59 1294.2 1207.38C1295.58 1207.77 1296.79 1208.09 1297.7 1208.3C1298.14 1208.4 1298.62 1208.5 1299.06 1208.56C1299.26 1208.58 1299.62 1208.63 1300.03 1208.63C1300.23 1208.62 1300.62 1208.61 1301.09 1208.52C1301.39 1208.46 1302.56 1208.21 1303.61 1207.2C1304.22 1206.61 1304.51 1206.03 1304.6 1205.86L1304.6 1205.86C1304.79 1205.49 1304.89 1205.18 1304.94 1205.02C1305.05 1204.69 1305.1 1204.39 1305.13 1204.24C1305.19 1203.91 1305.23 1203.55 1305.26 1203.24C1305.33 1202.6 1305.39 1201.75 1305.45 1200.75C1305.57 1198.74 1305.69 1195.9 1305.81 1192.47C1306.06 1185.59 1306.33 1176.2 1306.6 1166L1306.6 1165.99L1306.6 1165.97C1307.2 1138.1 1306.74 1116.69 1305.01 1100.03C1303.28 1083.4 1300.25 1071.18 1295.52 1061.87C1292.65 1056.19 1289.33 1051.77 1284.72 1048.88C1280.09 1045.98 1274.78 1045 1268.67 1045H1268.62L1268.58 1045C1259.57 1045.16 1253.35 1048.1 1232.29 1060.34C1228.08 1062.78 1225.29 1063.58 1218.2 1064.08C1213.88 1064.34 1211.75 1064.33 1210.01 1064.02C1208.35 1063.73 1206.78 1063.13 1203.64 1061.63C1194.61 1057.22 1185.36 1046.62 1178.81 1033.92C1172.25 1021.2 1169.06 1007.68 1170.79 998.084L1170.79 998.063L1170.8 998.041C1173.33 983.215 1184.7 968.383 1197.65 962.56L1197.66 962.558C1202.55 960.351 1206.86 959.344 1211.98 959.416C1217.25 959.49 1223.61 960.708 1232.59 963.331C1246.82 967.53 1258.32 968.93 1267.85 965.976C1277.7 962.922 1284.39 955.58 1289.79 944.942C1295.27 934.253 1297.67 918.47 1297.67 898.4C1297.67 882.784 1294.59 830.527 1292.81 818.344L1292.81 818.307L1292.8 818.27L1292.14 814.137L1291.26 808.735L1285.96 810.089L1229.04 824.62C1178.28 837.51 1171.21 839 1162 839C1136.37 839 1120.39 829.337 1116.54 816.076C1114.12 807.721 1115.18 799.567 1123.99 777.164C1123.99 777.163 1123.99 777.162 1123.99 777.162L875.995 1028.46ZM875.995 1028.46L876.042 1028.45M875.995 1028.46L876.042 1028.45M876.042 1028.45C881.149 1026.77 887.52 1026.7 894.482 1027.68C901.524 1028.68 909.592 1030.81 918.337 1033.95C926.625 1036.85 936.414 1039.48 940.05 1039.97C949.552 1040.95 960.34 1038.16 970.093 1032.51C979.84 1026.86 988.141 1018.58 992.841 1009.14C994.45 1005.79 995.192 1003.88 995.615 1001.78C996.057 999.583 996.2 996.928 996.2 992C996.2 984.625 995.095 978.943 992.433 973.446C989.723 967.849 985.242 962.115 977.951 954.889C966.642 943.708 959.114 939.087 948.079 936.173C941.125 934.404 936.789 933.901 930.937 934.998C924.697 936.167 916.622 939.174 902.335 945.144C893.172 949.001 885.064 950.997 878.153 950.539C870.932 950.06 865.15 946.891 861.29 941.015M876.042 1028.45L861.29 941.015M861.29 941.015C859.147 937.758 857.565 933.317 856.345 928.026M861.29 941.015L856.345 928.026M856.345 928.026C855.107 922.664 854.164 916.077 853.485 908.284M856.345 928.026L853.485 908.284M853.485 908.284C852.129 892.697 851.8 871.884 852.468 845.608L853.485 908.284Z" stroke="#9E9E9E" stroke-opacity="0.6" stroke-width="10"/>
<path d="M849.2 944.933C841.867 930.8 838.8 897.067 840.667 848.667C841.28 832.468 841.781 815.818 841.961 809.838C841.976 809.321 841.989 808.884 842 808.533L849.2 944.933ZM718.867 889.867V889.835L718.867 889.803C718.935 884.445 718.894 882.405 718.147 879.822C717.319 876.959 715.611 873.405 711.657 865.428C706.521 855.154 703.353 847.479 702.488 840.498C701.581 833.181 703.244 827.099 706.536 820.151C714.167 803.609 726.611 792.66 743.221 788.242C751.197 786.029 756.662 785.801 772.172 786.336L772.18 786.337L772.187 786.337C793.785 787.147 806.286 788.643 827.953 792.546L827.971 792.549L827.988 792.552L842.921 795.352L847 796.117V800.267V808.533V808.609L846.998 808.685L846.958 809.998C846.778 815.984 846.277 832.644 845.663 848.856L845.663 848.859C844.735 872.931 845.039 893.237 846.464 909.206C847.904 925.354 850.449 936.485 853.638 942.63L853.649 942.652L853.66 942.673C857.639 950.523 866.015 955.95 878.097 957.158L878.129 957.161L878.16 957.165C882.384 957.641 885.702 957.518 889.884 956.454C894.255 955.343 899.664 953.182 908.043 949.325L908.052 949.32L908.061 949.316C923.252 942.399 931.969 940.159 942.515 941.861C954.068 943.665 963.643 949.113 973.644 958.973L973.656 958.985L973.669 958.998C983.425 968.754 988.998 979.779 989.446 990.797C989.899 1001.95 985.066 1012.33 975.516 1020.47C962.176 1031.92 945.105 1032.36 915.4 1025.4C905.48 1023.12 896.47 1021.77 888.916 1021.34C881.279 1020.91 875.507 1021.43 871.834 1022.61C861.501 1026.11 853.301 1036.13 847.886 1055.73L847.882 1055.75L847.877 1055.76C845.564 1063.92 845.267 1068.16 845.267 1093.33C845.267 1117.01 845.789 1125.7 848.681 1145.68C850.664 1159.03 852.333 1173.42 852.333 1177.47C852.333 1178.03 852.348 1178.45 852.365 1178.91C852.375 1179.2 852.386 1179.5 852.394 1179.87C852.41 1180.62 852.421 1181.77 852.151 1182.95C851.84 1184.3 851.173 1185.67 849.94 1186.82C848.82 1187.87 847.503 1188.48 846.313 1188.89C844.047 1189.67 840.802 1190.18 836.536 1190.72C833.669 1191.07 830.086 1191.47 825.671 1191.96C823.321 1192.23 820.735 1192.51 817.896 1192.83L817.896 1192.83C782.582 1196.83 772.211 1197.44 756.802 1195.77C726.123 1192.54 705.474 1183.2 697.926 1165.14C696.182 1161.02 695.408 1157.16 696.024 1152.38C696.6 1147.91 698.371 1142.84 701.108 1136.23C703.157 1131.21 704.256 1128.1 704.876 1125.39C705.476 1122.76 705.667 1120.34 705.667 1116.67C705.667 1112.62 705.492 1110.59 704.935 1108.6C704.347 1106.49 703.263 1104.17 700.914 1099.67C694.402 1087.54 684.462 1077.57 673.691 1072.37L673.675 1072.36L673.659 1072.35C669.458 1070.29 667.386 1069.41 665.171 1068.94C662.882 1068.45 660.196 1068.33 654.667 1068.33C649.539 1068.33 646.68 1068.47 644.374 1068.9C642.188 1069.3 640.303 1070 637.191 1071.46C623.087 1078.09 613.521 1090.35 610.093 1106.63C607.937 1116.93 608.5 1123.88 613.736 1141.94C616.075 1149.93 618.16 1160.69 618.59 1167.68C618.918 1172.61 619.063 1176.11 618.695 1179.07C618.296 1182.29 617.323 1184.67 615.939 1187.44L615.926 1187.46L615.913 1187.49C614.595 1190.05 613.056 1192.51 610.73 1194.57C608.369 1196.66 605.529 1198.05 602.017 1199.03C595.338 1200.9 585.079 1201.6 568.485 1202.33L568.484 1202.33C525.743 1204.19 510.014 1206.03 479.001 1212.37L478.996 1212.37C471.122 1213.97 463.774 1215.44 458.271 1216.51C455.523 1217.04 453.22 1217.48 451.537 1217.79C450.699 1217.94 449.992 1218.06 449.451 1218.15C449.433 1218.15 449.414 1218.15 449.394 1218.16C449.05 1218.21 448.313 1218.33 447.733 1218.33C446.669 1218.33 445.402 1218.03 444.28 1217.14C443.208 1216.28 442.683 1215.22 442.428 1214.42C441.976 1213.02 442.106 1211.64 442.21 1210.86C442.448 1209.08 443.129 1206.74 444.068 1203.98L444.071 1203.98L444.074 1203.97C447.826 1193.1 452.572 1174.04 456.553 1153.08C459.167 1139.09 460.069 1130.45 460.2 1115.96C460.265 1106.14 459.74 1093.98 458.882 1083.04C458.014 1071.98 456.836 1062.57 455.686 1058.03L455.684 1058.02L455.683 1058.01C453.541 1049.45 445.511 1042.07 435.506 1040.25L435.489 1040.25L435.473 1040.25C430.145 1039.24 421.764 1041.04 405.69 1048.41C397.114 1052.37 391.361 1054.81 386.531 1055.88C381.315 1057.04 377.33 1056.56 372.469 1055.4C369.429 1054.72 366.795 1053.78 364.126 1052.15C361.527 1050.56 359.1 1048.44 356.331 1045.67C351.494 1040.83 348.058 1035.94 346.028 1030.11C344.016 1024.33 343.521 1018.01 343.941 1010.52C344.442 1001.43 346.551 993.807 351.095 987.354C355.619 980.931 362.216 976.155 370.817 972.137L370.826 972.133L370.834 972.128C376.784 969.377 382.389 968.026 389.221 968.373C395.832 968.709 403.366 970.629 413.191 973.926C423.392 977.349 429.294 979.09 433.731 979.716C437.824 980.292 440.682 979.922 444.83 978.678L444.85 978.671L444.87 978.666C457.232 975.069 468.686 961.383 472.437 943.254L472.44 943.241C476.911 921.908 476.245 899.606 468.918 848.848L468.917 848.84C468.798 848.011 468.683 847.201 468.569 846.41C467.477 838.769 466.637 832.895 466.074 828.403C465.464 823.533 465.129 819.937 465.22 817.342C465.306 814.888 465.801 811.713 468.575 809.688C469.79 808.802 471.064 808.439 471.936 808.248C472.592 808.104 473.362 807.994 473.948 807.91C474.085 807.89 474.212 807.872 474.325 807.855C477.02 807.451 501.177 803.981 527.977 800.248C581.124 792.844 592.716 792.107 607.904 797.857L607.947 797.874L607.99 797.891C612.485 799.689 618.431 803.36 621.669 806.598L621.694 806.623L621.72 806.649L626.253 811.316L627.688 812.793L627.666 814.852L627.533 827.785L627.533 827.797C627.393 838.727 626.369 845.545 622.307 861.252L622.304 861.265L622.3 861.278C618.066 877.289 617.578 881.442 618.056 888.601L618.057 888.625L618.059 888.65C619.009 905.4 629.856 920.861 647.144 929.382C662.845 937.107 675.8 937.978 690.49 932.393L690.506 932.387L690.523 932.381C695.356 930.582 699.034 928.162 705.264 921.931C710.676 916.519 713.971 912.01 715.979 907.267C717.981 902.539 718.867 897.196 718.867 889.867Z" stroke="#9E9E9E" stroke-opacity="0.6" stroke-width="10"/>
<path d="M1494 823.467C1489.73 829.733 1489.6 839.733 1493.33 856.267C1495.87 867.467 1495.87 868.133 1493.6 877.6C1488.67 898 1476 916.667 1462 924.133C1456.93 926.8 1454.13 927.333 1443.33 927.333C1431.87 927.333 1429.87 926.933 1421.73 923.067C1405.87 915.6 1395.73 902.133 1392.4 884C1390.27 872.533 1392.4 862.667 1401.47 843.733L1494 823.467ZM1360.67 1164.92C1351.23 1173.43 1338.88 1184.72 1333.29 1189.91L1405.98 845.895C1397.06 864.506 1395.47 873.187 1397.32 883.085L1397.32 883.096C1400.38 899.734 1409.54 911.8 1423.86 918.543L1423.87 918.547L1423.88 918.551C1427.92 920.471 1429.97 921.292 1432.25 921.745C1434.65 922.219 1437.54 922.333 1443.33 922.333C1448.75 922.333 1451.75 922.191 1453.96 921.807C1455.96 921.46 1457.42 920.895 1459.66 919.715C1472.02 913.117 1484.02 895.913 1488.74 876.435C1489.9 871.571 1490.29 869.66 1490.27 867.644C1490.24 865.534 1489.76 863.136 1488.46 857.37L1488.46 857.368C1486.55 848.932 1485.56 841.852 1485.67 835.923C1485.78 829.958 1487.02 824.841 1489.87 820.653L1489.89 820.626L1489.9 820.599C1492.16 817.376 1496.74 812.976 1500.21 810.562L1500.25 810.534L1500.29 810.506C1505.81 806.83 1510.7 804.802 1520.1 803.858C1529.09 802.956 1542.59 803.002 1565.42 803.401L1565.43 803.401C1585.33 803.801 1600.77 804.404 1611.6 805.231C1617 805.644 1621.36 806.121 1624.59 806.679C1626.2 806.957 1627.65 807.276 1628.86 807.659C1629.86 807.973 1631.5 808.562 1632.74 809.798C1634.05 811.112 1634.27 812.67 1634.32 813.314C1634.38 814.073 1634.29 814.752 1634.21 815.217C1634.04 816.173 1633.72 817.2 1633.36 818.165C1632.64 820.151 1631.49 822.731 1630.05 825.705C1627.14 831.696 1622.8 839.775 1617.63 848.896C1607.3 867.155 1593.5 889.859 1580.83 908.903L1580.83 908.907C1543.03 965.609 1500.3 1018.09 1427.68 1096.72C1391.65 1135.81 1379.92 1147.69 1360.67 1164.92ZM1323.46 1194.82C1323.46 1194.82 1323.46 1194.81 1323.46 1194.8C1323.46 1194.81 1323.46 1194.82 1323.46 1194.82ZM1228.93 975.466L1228.93 975.466L1228.93 975.466Z" stroke="#9E9E9E" stroke-opacity="0.6" stroke-width="10"/>
<path d="M616.648 1198.69L616.64 1198.7C612.874 1203 609.924 1205.2 604.232 1206.7C597.997 1208.33 588.604 1209.07 571.82 1209.67L571.811 1209.67L571.801 1209.67C541.357 1210.88 538.703 1211.19 496.426 1219.08C481.056 1221.89 464.084 1224.94 458.973 1225.72L458.922 1225.73L458.871 1225.74C456.145 1226.22 453.554 1226.75 451.59 1227.27C450.638 1227.52 449.654 1227.81 448.834 1228.16C448.453 1228.32 447.852 1228.59 447.264 1229.02C446.969 1229.23 446.493 1229.61 446.052 1230.2C445.607 1230.79 445 1231.87 445 1233.33C445 1234.71 445.448 1235.88 445.828 1236.66C446.234 1237.5 446.759 1238.29 447.309 1239.02C448.408 1240.47 449.921 1242.07 451.729 1243.78C455.367 1247.22 460.673 1251.55 467.533 1256.67C475.565 1262.72 494.803 1278.25 510.071 1291.39L510.087 1291.4L510.102 1291.42C549.407 1324.7 676.948 1424.36 730.368 1463.36C733.642 1465.79 738.027 1469.05 743.035 1472.76C754.799 1481.48 770.002 1492.75 782.333 1502C799.93 1515.2 819.185 1529.37 825.12 1533.55L825.137 1533.57L825.154 1533.58C831.313 1537.84 838.273 1542.3 843.8 1545.61C846.553 1547.25 849.019 1548.66 850.883 1549.61C851.792 1550.08 852.691 1550.5 853.464 1550.8C853.818 1550.93 854.381 1551.13 855.013 1551.23C855.316 1551.28 855.904 1551.36 856.617 1551.28C857.269 1551.2 858.788 1550.89 859.974 1549.47L859.974 1549.47C860.547 1548.78 860.807 1548.1 860.846 1548L860.851 1547.99C860.968 1547.7 861.052 1547.42 861.108 1547.23C861.225 1546.83 861.333 1546.37 861.433 1545.91C861.636 1544.97 861.872 1543.7 862.134 1542.2C862.66 1539.17 863.324 1534.94 864.072 1529.93C865.571 1519.9 867.429 1506.58 869.239 1493.03C871.05 1479.48 872.815 1465.68 874.129 1454.68C875.418 1443.9 876.333 1435.35 876.333 1432.67C876.333 1417.96 873.494 1405.86 867.376 1397.55C861.017 1388.92 851.569 1385.01 840.2 1386.09C835.195 1386.56 824.799 1389.58 815.484 1393.35C808.472 1396.09 804.447 1397.53 801.162 1398.32C798.034 1399.08 795.472 1399.27 791.333 1399.27C771.75 1399.27 752.656 1386.98 742.045 1366.38L742.025 1366.34L742.005 1366.3C740.106 1362.76 739.335 1360.99 738.908 1358.98C738.45 1356.82 738.333 1354.14 738.333 1348.67C738.333 1343.07 738.45 1340.38 738.939 1338.1C739.414 1335.88 740.286 1333.81 742.357 1329.53C747.727 1318.68 757.41 1308.96 768.49 1302.36C779.625 1295.74 791.537 1292.65 801.22 1294.14C802.364 1294.32 804.85 1295.06 808.186 1296.28C811.395 1297.45 815.039 1298.93 818.323 1300.41C823.6 1302.86 827.315 1304.46 830.462 1305.33C833.884 1306.29 836.559 1306.36 839.698 1306.04L839.706 1306.04L839.715 1306.04C849.242 1305.05 856.176 1300.1 861.141 1291.41L861.152 1291.4L861.163 1291.38C863.599 1287.03 864.912 1279.98 865.436 1272.87C865.978 1265.53 865.74 1257.23 864.535 1249.86C864.535 1249.86 864.535 1249.86 864.535 1249.86L616.648 1198.69ZM616.648 1198.69C624.789 1189.45 626.671 1175.68 620.465 1149.14C616.221 1131.02 614.871 1116.72 617.314 1105.47C619.847 1093.8 626.38 1085.76 636.71 1080.26C650.051 1073.11 667.123 1077.21 679.578 1085.25C691.921 1093.21 702.431 1106.87 699.574 1121.49L699.556 1121.59L699.534 1121.68C698.956 1124.13 696.777 1131.88 694.486 1138.89L694.482 1138.9C690.907 1149.76 689.957 1157.09 691.17 1163.19C692.363 1169.18 695.8 1174.73 702.736 1181.66C723.911 1202.84 760.059 1208.79 832.257 1199.18C837.149 1198.51 841.648 1197.94 844.951 1197.55C846.598 1197.36 847.971 1197.21 848.956 1197.11C849.248 1197.08 849.522 1197.06 849.77 1197.04C849.932 1197.03 850.083 1197.02 850.219 1197.01C850.378 1197 850.6 1196.99 850.828 1196.99C850.926 1196.99 851.155 1196.99 851.431 1197.02C851.56 1197.03 851.843 1197.07 852.19 1197.16L852.206 1197.16C852.303 1197.19 852.68 1197.28 853.163 1197.52L616.648 1198.69Z" stroke="#9E9E9E" stroke-opacity="0.6" stroke-width="10"/>
<path d="M1130.81 1187.03L1130.8 1187.03C1114.58 1188.76 1103.98 1190.26 1096.59 1192.34C1088.9 1194.51 1084.35 1197.41 1080.47 1201.95L1080.45 1201.98L1080.43 1202C1078.8 1203.95 1077.33 1205.98 1076.33 1208.33C1075.29 1210.77 1074.85 1213.3 1074.94 1216.14C1075.1 1221.42 1077.13 1228.13 1080.47 1237.89L1080.47 1237.9L1080.48 1237.91C1084.07 1248.23 1085.76 1254.54 1086.13 1259.7C1086.48 1264.63 1085.64 1268.79 1083.44 1274.82L1083.43 1274.83L1083.43 1274.84C1077.82 1290.43 1066.21 1304.07 1052.88 1311.04L1052.85 1311.05L1052.82 1311.07C1049.75 1312.73 1048.16 1313.41 1046.16 1313.79C1043.96 1314.22 1041.08 1314.33 1035.33 1314.33C1029.46 1314.33 1026.59 1314.22 1024.25 1313.75C1022.05 1313.3 1020.12 1312.5 1016.22 1310.59C1005.56 1305.25 997.829 1298.39 991.109 1288.18L991.095 1288.16L991.08 1288.14C982.986 1276.13 980.019 1266.02 980.721 1255.95L980.722 1255.94C980.97 1252.34 981.353 1249.92 982.329 1246.97C983.354 1243.88 985.071 1240.11 988.204 1233.84C990.664 1228.95 992.586 1225.07 993.987 1221.95C995.367 1218.87 996.381 1216.24 996.862 1213.92C997.373 1211.45 997.342 1209.08 996.382 1206.75C995.513 1204.63 994.049 1203.02 992.812 1201.74C991.336 1200.18 989.151 1198.65 987.045 1197.39C984.859 1196.08 982.359 1194.85 980.026 1193.99C974.706 1191.94 966.375 1190.47 957.78 1189.61C949.053 1188.74 939.527 1188.45 931.647 1189.01C922.864 1189.62 908.631 1190.79 896.17 1191.9C889.935 1192.46 884.124 1193.01 879.646 1193.47C875.497 1193.9 872.037 1194.29 870.705 1194.57C869.658 1194.78 867.04 1195.31 865.347 1197.84C863.902 1199.99 863.801 1202.66 863.869 1204.85C864.016 1209.58 865.366 1218.08 867.866 1233.34L1130.81 1187.03ZM1130.81 1187.03L1130.82 1187.03M1130.81 1187.03L1130.82 1187.03M1130.82 1187.03C1160 1184.01 1193.83 1187.6 1233.93 1198.09C1238.64 1199.31 1244.15 1200.76 1249.59 1202.18C1257.29 1204.2 1264.85 1206.17 1269.76 1207.42C1278.18 1209.56 1284.34 1211.4 1288.29 1213.08C1290.18 1213.88 1292.09 1214.86 1293.45 1216.15C1294.16 1216.81 1295.06 1217.88 1295.48 1219.38C1295.95 1221.09 1295.64 1222.77 1294.84 1224.14L1294.81 1224.19L1294.77 1224.25C1294.08 1225.36 1292.93 1226.56 1291.79 1227.67C1290.53 1228.89 1288.85 1230.41 1286.77 1232.22C1282.59 1235.86 1276.57 1240.87 1268.5 1247.47L1268.5 1247.47C1260.54 1253.97 1244.04 1267.81 1231.94 1278.31C1219.74 1288.91 1196.34 1308.16 1179.75 1321.14C1171.06 1327.93 1157.35 1338.72 1142.52 1350.4C1129.11 1360.95 1114.79 1372.23 1102.43 1381.93C1076.4 1402.48 1037.03 1432.78 1014.86 1449.34C1000.88 1459.78 984.098 1472.34 970.163 1482.77C962.026 1488.86 954.86 1494.22 949.794 1498C927.313 1514.82 910.05 1527.36 897.9 1535.72C891.835 1539.89 886.976 1543.07 883.348 1545.21C881.541 1546.28 879.953 1547.15 878.624 1547.77C877.96 1548.07 877.284 1548.35 876.627 1548.57C876.038 1548.76 875.141 1549 874.133 1549C871.395 1549 870.063 1547.01 869.724 1546.4C869.331 1545.7 869.197 1545.06 869.152 1544.84C869.045 1544.3 869.03 1543.8 869.026 1543.55C869.015 1542.96 869.053 1542.25 869.106 1541.55C869.215 1540.08 869.435 1538.05 869.739 1535.63C870.349 1530.76 871.326 1524.1 872.534 1516.79L872.536 1516.77L872.538 1516.76C879.861 1473.75 881.4 1460.09 881.4 1438.67V1438.66L881.4 1438.65C881.466 1421.05 879.831 1408.72 876.254 1399.73C872.78 1391 867.385 1385.21 859.224 1380.8L859.152 1380.76L859.081 1380.72C857.24 1379.65 854.609 1379 844.735 1379.13L844.701 1379.13H844.667C839.292 1379.13 835.979 1379.3 832.456 1379.94C828.868 1380.59 824.896 1381.75 818.238 1383.95C797.728 1390.74 784.535 1391.77 771.808 1385.56L771.786 1385.55L771.764 1385.54C755.594 1377.45 745.658 1365.95 744.093 1350.78L744.092 1350.77L744.091 1350.76C742.331 1332.99 756.61 1314.75 776.507 1305.22L776.522 1305.22M1130.82 1187.03L776.522 1305.22M776.522 1305.22L776.538 1305.21M776.522 1305.22L776.538 1305.21M776.538 1305.21C780.999 1303.11 784.197 1301.69 787.435 1300.98C790.778 1300.25 793.893 1300.34 798.04 1300.61C805.638 1301.06 811.059 1302.62 820.092 1306.79C829.695 1311.21 836.991 1312.75 843.089 1312.06C849.044 1311.39 854.552 1308.51 860.465 1302.6C866.43 1296.63 869.895 1289.92 871.136 1279.59M776.538 1305.21L871.136 1279.59M871.136 1279.59C872.413 1268.95 871.321 1254.54 867.866 1233.34L871.136 1279.59ZM879.024 1543.37C879.025 1543.41 879.026 1543.4 879.024 1543.37C879.024 1543.37 879.024 1543.37 879.024 1543.37ZM873.487 1539.07C873.487 1539.07 873.499 1539.07 873.524 1539.06C873.5 1539.07 873.488 1539.07 873.487 1539.07Z" stroke="#9E9E9E" stroke-opacity="0.6" stroke-width="10"/>
</svg>
